<svg width="60" height="60" viewBox="0 0 60 60" fill="none" xmlns="http://www.w3.org/2000/svg">
<rect width="60" height="60" fill="#1E1E1E"/>
<path d="M30.8375 48.3395C30.7909 48.3395 30.7432 48.3322 30.6975 48.3193C30.6158 48.2937 30.5428 48.2461 30.4861 48.182C30.4295 48.1178 30.3915 48.0393 30.3762 47.9551C30.0613 46.2193 29.1697 43.2773 28.1188 42.7738C28.0069 42.7196 27.9209 42.6234 27.8798 42.5061C27.8386 42.3887 27.8455 42.2599 27.8991 42.1477C27.9531 42.0356 28.0494 41.9495 28.1668 41.9083C28.2842 41.8671 28.4131 41.8742 28.5253 41.9279C29.9313 42.6036 30.7643 45.4248 31.114 46.9096C36.6074 40.9961 34.1239 37.243 34.0973 37.2046C34.0623 37.154 34.0375 37.097 34.0245 37.0368C34.0115 36.9767 34.0105 36.9145 34.0215 36.854C34.0326 36.7934 34.0555 36.7356 34.089 36.6839C34.1224 36.6323 34.1657 36.5877 34.2164 36.5528C34.4261 36.4063 34.7217 36.4576 34.8682 36.6718C34.9991 36.8604 37.9962 41.3808 31.1691 48.2024C31.1255 48.2459 31.0738 48.2804 31.017 48.304C30.9601 48.3275 30.8991 48.3396 30.8375 48.3395ZM20.3929 34.8409C20.3117 34.8408 20.2319 34.8196 20.1613 34.7795C20.0907 34.7394 20.0317 34.6817 19.99 34.612C19.3062 33.4605 16.0437 32.644 14.8445 32.4261C14.7601 32.4108 14.6816 32.3726 14.6174 32.3158C14.5531 32.259 14.5057 32.1857 14.4802 32.1039C14.4548 32.0223 14.4522 31.9353 14.4727 31.8524C14.4932 31.7695 14.536 31.6937 14.5964 31.6334C21.4218 24.8067 25.9429 27.8 26.1306 27.9319C26.1812 27.9668 26.2245 28.0114 26.2579 28.0631C26.2913 28.1148 26.3142 28.1725 26.3253 28.2331C26.3363 28.2936 26.3353 28.3558 26.3224 28.4159C26.3094 28.4761 26.2847 28.5331 26.2496 28.5837C26.1032 28.797 25.8122 28.8483 25.5997 28.7045C25.4386 28.5938 21.7568 26.2302 15.8891 31.6883C17.3244 32.0252 20.0129 32.8141 20.7956 34.1324C20.8272 34.1853 20.848 34.2438 20.8569 34.3048C20.8658 34.3657 20.8626 34.4278 20.8475 34.4875C20.8323 34.5472 20.8056 34.6033 20.7687 34.6526C20.7318 34.7019 20.6856 34.7435 20.6326 34.7749C20.56 34.8178 20.4772 34.8405 20.3929 34.8409ZM11.094 52.3617C10.8579 52.3617 10.7096 52.2628 10.6263 52.1804C9.56719 51.1205 15.2071 44.9488 15.2666 44.8883C15.9751 44.1817 17.2099 44.1817 17.9186 44.8902C18.093 45.0635 18.2313 45.2698 18.3255 45.497C18.4196 45.7242 18.4677 45.9679 18.4669 46.2138C18.4669 46.7155 18.2719 47.186 17.9176 47.5395C17.869 47.5889 12.4727 52.3617 11.094 52.3617ZM16.592 45.2783C16.469 45.2779 16.3471 45.3017 16.2334 45.3486C16.1197 45.3954 16.0163 45.4642 15.9293 45.5511C15.252 46.2285 12.3574 49.795 11.5757 51.2304C13.011 50.4485 16.5775 47.5541 17.2548 46.8766C17.3424 46.79 17.4118 46.6868 17.459 46.573C17.5061 46.4592 17.5301 46.3371 17.5295 46.2139C17.5301 46.0911 17.5061 45.9694 17.4591 45.8559C17.4121 45.7424 17.343 45.6395 17.2557 45.553C17.1688 45.4656 17.0654 45.3962 16.9514 45.3491C16.8375 45.3019 16.7153 45.2779 16.592 45.2783Z" fill="black" fill-opacity="0.501961"/>
<path d="M9.25863 55.2819C8.70668 55.2819 8.27473 55.1299 7.97531 54.8316C7.07543 53.9307 7.51301 51.9059 9.31266 48.6415C10.6583 46.1993 12.4196 43.7606 13.2792 42.9019C14.1635 42.0157 15.3397 41.5288 16.5912 41.5288C17.8426 41.5288 19.0198 42.0157 19.9049 42.9019C21.7311 44.7291 21.733 47.7023 19.9076 49.5295C18.4713 50.9648 12.1724 55.2819 9.25863 55.2819ZM16.5911 42.4663C15.5896 42.4663 14.6495 42.8562 13.9419 43.5647C13.1236 44.3814 11.398 46.798 10.1338 49.0938C8.41008 52.219 8.25094 53.7807 8.63801 54.1689C8.75519 54.2861 8.96391 54.3446 9.25863 54.3446C11.7148 54.3446 17.7418 50.3681 19.2449 48.8668C20.7049 47.4059 20.703 45.0259 19.2422 43.5648C18.5336 42.8562 17.5925 42.4663 16.5911 42.4663ZM26.1607 44.9836C26.068 44.9836 25.9774 44.9562 25.9003 44.9047C25.8232 44.8532 25.7631 44.78 25.7276 44.6943C25.6921 44.6087 25.6829 44.5144 25.701 44.4235C25.7191 44.3326 25.7638 44.2491 25.8294 44.1836L51.6786 18.3338C53.9507 16.0617 54.6483 13.5717 54.8616 12.2903C55.1919 10.3075 54.8176 8.87859 54.3296 8.39062C53.8683 7.92926 52.3002 7.68211 50.1957 8.10316C47.9146 8.55902 45.7972 9.63012 44.3866 11.0407L18.5373 36.8914L17.8746 36.2288L43.7238 10.378C45.2617 8.83922 47.554 7.67566 50.0127 7.18418C51.7996 6.82723 54.0486 6.78234 54.9926 7.72793C56.4718 9.20719 56.5909 14.7472 52.3414 18.9966L26.4922 44.8464C26.4487 44.8899 26.397 44.9245 26.3402 44.948C26.2833 44.9716 26.2223 44.9837 26.1607 44.9836Z" fill="black" fill-opacity="0.501961"/>
<path d="M46.7063 11.178C46.6253 11.1781 46.5458 11.1573 46.4753 11.1175C46.4049 11.0777 46.346 11.0203 46.3043 10.9509C46.2405 10.8443 46.2216 10.7167 46.2516 10.5961C46.2816 10.4756 46.3582 10.3718 46.4645 10.3075C49.7691 8.3182 52.7241 8.10773 53.667 9.05332C53.7517 9.14184 53.7984 9.26003 53.7971 9.38256C53.7957 9.5051 53.7465 9.62224 53.6598 9.7089C53.5732 9.79556 53.4561 9.84485 53.3335 9.8462C53.211 9.84755 53.0928 9.80086 53.0043 9.71613C52.5895 9.30235 50.2625 9.11555 46.9478 11.1111C46.8747 11.1547 46.7913 11.1778 46.7063 11.178ZM22.1824 41.0052C22.0898 41.0052 21.9992 40.9776 21.9221 40.9261C21.8451 40.8746 21.785 40.8015 21.7496 40.7158C21.7141 40.6302 21.7048 40.536 21.7229 40.4451C21.7409 40.3542 21.7855 40.2707 21.851 40.2052L29.8014 32.2557C29.8449 32.2122 29.8965 32.1777 29.9534 32.1542C30.0102 32.1306 30.0712 32.1185 30.1327 32.1185C30.1943 32.1185 30.2552 32.1306 30.312 32.1542C30.3689 32.1777 30.4205 32.2122 30.4641 32.2557C30.5076 32.2993 30.5421 32.3509 30.5656 32.4078C30.5892 32.4646 30.6013 32.5256 30.6013 32.5871C30.6013 32.6486 30.5892 32.7096 30.5656 32.7664C30.5421 32.8233 30.5076 32.8749 30.4641 32.9184L22.5137 40.868C22.4703 40.9115 22.4186 40.9461 22.3618 40.9696C22.3049 40.9932 22.244 41.0053 22.1824 41.0052ZM20.8569 39.6798C20.7954 39.6799 20.7344 39.6678 20.6776 39.6442C20.6207 39.6206 20.5691 39.586 20.5256 39.5425L17.8746 36.8914C17.7867 36.8036 17.7374 36.6844 17.7374 36.5601C17.7374 36.4358 17.7867 36.3166 17.8746 36.2288C17.9625 36.1409 18.0817 36.0915 18.206 36.0915C18.3302 36.0915 18.4494 36.1409 18.5373 36.2288L21.1883 38.8798C21.2539 38.9453 21.2986 39.0288 21.3167 39.1197C21.3349 39.2107 21.3256 39.3049 21.2901 39.3906C21.2546 39.4763 21.1945 39.5495 21.1174 39.6009C21.0403 39.6524 20.9496 39.6799 20.8569 39.6798ZM26.1607 44.9836C26.0992 44.9837 26.0382 44.9716 25.9813 44.948C25.9245 44.9244 25.8729 44.8898 25.8294 44.8462L23.1765 42.1934C23.0886 42.1055 23.0393 41.9863 23.0393 41.862C23.0393 41.7377 23.0886 41.6185 23.1765 41.5307C23.2644 41.4428 23.3836 41.3934 23.5079 41.3934C23.6322 41.3934 23.7513 41.4428 23.8392 41.5307L26.4921 44.1836C26.5577 44.2491 26.6024 44.3326 26.6205 44.4235C26.6387 44.5145 26.6294 44.6087 26.5939 44.6944C26.5584 44.78 26.4983 44.8533 26.4212 44.9047C26.3441 44.9562 26.2534 44.9837 26.1607 44.9836ZM42.0669 23.9343C41.19 23.9343 40.367 23.5928 39.7473 22.9731C39.1276 22.3533 38.7861 21.5295 38.7861 20.6534C38.7861 19.7764 39.1276 18.9525 39.7473 18.3328C40.9867 17.0925 43.1481 17.0925 44.3876 18.3319C45.0073 18.9516 45.3486 19.7754 45.3486 20.6515C45.3486 21.5284 45.0073 22.3523 44.3876 22.9721C43.7677 23.5918 42.9429 23.9343 42.0669 23.9343ZM42.0679 18.3081C41.4417 18.3081 40.8532 18.5525 40.4101 18.9955C40.1917 19.2127 40.0186 19.471 39.9008 19.7556C39.783 20.0402 39.7227 20.3453 39.7236 20.6532C39.7228 20.9611 39.7831 21.2661 39.9009 21.5505C40.0187 21.8349 40.1918 22.0931 40.4101 22.3102C41.2944 23.1945 42.8387 23.1954 43.7248 22.3092C43.9432 22.092 44.1163 21.8337 44.2342 21.5491C44.352 21.2645 44.4123 20.9594 44.4114 20.6514C44.4121 20.3435 44.3519 20.0386 44.234 19.7541C44.1162 19.4697 43.9431 19.2115 43.7248 18.9945C43.5077 18.7762 43.2495 18.6031 42.9651 18.4853C42.6806 18.3675 42.3757 18.3073 42.0679 18.3081ZM35.4394 30.5618C34.5623 30.5618 33.7385 30.2204 33.1197 29.6006C32.5 28.9809 32.1585 28.1571 32.1585 27.281C32.1585 26.4041 32.5 25.5802 33.1197 24.9614C34.3574 23.7238 36.5195 23.7219 37.759 24.9614C38.3787 25.5812 38.7202 26.405 38.7202 27.281C38.7202 28.157 38.3787 28.9809 37.759 29.6006C37.1393 30.2204 36.3154 30.5618 35.4394 30.5618ZM35.4394 24.9375C34.8131 24.9375 34.2246 25.181 33.7825 25.6241C33.3394 26.0661 33.0959 26.6548 33.0959 27.281C33.0951 27.5889 33.1553 27.8938 33.2732 28.1782C33.3911 28.4627 33.5642 28.7209 33.7825 28.9379C34.6657 29.8232 36.2092 29.8249 37.0962 28.9379C37.3144 28.7208 37.4875 28.4626 37.6053 28.1782C37.7232 27.8938 37.7834 27.5889 37.7827 27.281C37.7834 26.9732 37.7232 26.6682 37.6053 26.3838C37.4875 26.0994 37.3144 25.8412 37.0962 25.6241C36.8791 25.4058 36.6209 25.2327 36.3366 25.1148C36.0522 24.997 35.7472 24.9367 35.4394 24.9375ZM52.9841 46.873C52.725 46.873 52.5108 46.6643 52.5108 46.4043C52.5108 46.1462 52.7159 45.9356 52.974 45.9356H52.9841C53.1083 45.9359 53.2274 45.9853 53.3152 46.0732C53.403 46.161 53.4525 46.28 53.4527 46.4043C53.4527 46.6643 53.2423 46.873 52.9841 46.873ZM16.4244 0.941016C16.1654 0.941016 15.9512 0.731368 15.9512 0.472266C15.9512 0.213282 16.1563 0.0036335 16.4143 0.0036335H16.4244C16.6826 0.0036335 16.8932 0.213282 16.8932 0.472266C16.8932 0.731368 16.6826 0.941016 16.4244 0.941016ZM37.0468 2.81578C36.7877 2.81578 36.5735 2.60613 36.5735 2.34703C36.5735 2.08805 36.7786 1.8784 37.0368 1.8784H37.0468C37.1711 1.87849 37.2902 1.9279 37.3781 2.01576C37.466 2.10363 37.5154 2.22277 37.5155 2.34703C37.5155 2.60613 37.305 2.81578 37.0468 2.81578ZM2.36379 14.0644C2.10469 14.0644 1.89059 13.8547 1.89059 13.5956C1.89059 13.3366 2.09566 13.127 2.35371 13.127H2.36379C2.62195 13.127 2.83254 13.3366 2.83254 13.5956C2.83254 13.8547 2.62195 14.0644 2.36379 14.0644ZM9.86192 39.3739C9.60281 39.3739 9.38859 39.1634 9.38859 38.9053C9.38859 38.6453 9.59367 38.4366 9.85184 38.4366H9.86192C9.92348 38.4365 9.98444 38.4486 10.0413 38.4722C10.0982 38.4957 10.1499 38.5303 10.1934 38.5738C10.2369 38.6173 10.2714 38.669 10.295 38.7259C10.3185 38.7828 10.3306 38.8438 10.3305 38.9053C10.3303 39.0295 10.2808 39.1486 10.193 39.2364C10.1052 39.3242 9.98613 39.3737 9.86192 39.3739ZM33.2496 59.059C32.9905 59.059 32.7763 58.8484 32.7763 58.5902C32.7763 58.3303 32.9814 58.1216 33.2395 58.1216H33.2496C33.5078 58.1216 33.7184 58.3303 33.7184 58.5902C33.7184 58.8484 33.5079 59.059 33.2496 59.059ZM55.7943 59.9964C55.5353 59.9964 55.3211 59.7877 55.3211 59.5276C55.3211 59.2695 55.5261 59.059 55.7842 59.059H55.7943C56.0524 59.059 56.263 59.2695 56.263 59.5276C56.263 59.7877 56.0524 59.9964 55.7943 59.9964ZM45.485 34.687C45.2259 34.687 45.0118 34.4766 45.0118 34.2184C45.0118 33.9584 45.2168 33.7498 45.475 33.7498H45.485C45.7432 33.7498 45.9538 33.9584 45.9538 34.2184C45.9535 34.3426 45.9041 34.4617 45.8162 34.5495C45.7284 34.6374 45.6093 34.6868 45.485 34.687ZM56.7327 30.9371C56.4736 30.9371 56.2594 30.7275 56.2594 30.4684C56.2594 30.2094 56.4645 29.9998 56.7226 29.9998H56.7327C56.857 29.9999 56.9761 30.0493 57.064 30.1371C57.1518 30.225 57.2012 30.3441 57.2013 30.4684C57.2013 30.7275 56.9907 30.9371 56.7327 30.9371ZM51.1084 44.0591C50.8493 44.0591 50.6351 43.8504 50.6351 43.5904C50.6351 43.3323 50.8402 43.1217 51.0983 43.1217H51.1084C51.2326 43.122 51.3517 43.1714 51.4395 43.2593C51.5273 43.3471 51.5768 43.4661 51.577 43.5904C51.577 43.8503 51.3666 44.0591 51.1084 44.0591Z" fill="black" fill-opacity="0.501961"/>
<path d="M53.4234 48.7495C50.8392 48.7477 48.7365 46.6441 48.7356 44.0609C48.7365 41.4757 50.8392 39.3739 53.4225 39.3739C56.0067 39.3739 58.1094 41.4758 58.1094 44.0609C58.1094 46.6441 56.0077 48.7477 53.4234 48.7495ZM53.4225 40.3113C51.3555 40.3113 49.674 41.9938 49.6731 44.0609C49.674 46.1279 51.3565 47.8104 53.4234 47.8123C55.4905 47.8104 57.172 46.1279 57.172 44.0609C57.172 41.992 55.4905 40.3113 53.4225 40.3113Z" fill="black" fill-opacity="0.501961"/>
<path d="M54.8314 44.0609C54.056 44.0609 53.4244 43.4291 53.4234 42.6548C53.4234 41.8785 54.0541 41.2487 54.8286 41.2487C55.6039 41.2487 56.2346 41.8804 56.2346 42.6548C56.2356 42.839 56.2 43.0215 56.1299 43.1918C56.0598 43.3622 55.9566 43.5169 55.8264 43.6471C55.6963 43.7787 55.5414 43.8831 55.3706 43.9541C55.1997 44.0252 55.0165 44.0615 54.8314 44.0609ZM54.8277 42.1861C54.7039 42.1862 54.5852 42.2354 54.4976 42.3229C54.4101 42.4104 54.3609 42.5292 54.3608 42.653C54.3618 42.9165 54.5668 43.1235 54.8296 43.1235H54.8314C54.9568 43.1235 55.0739 43.074 55.1618 42.9861C55.2497 42.8982 55.2973 42.7811 55.2973 42.6566C55.2973 42.532 55.2479 42.4124 55.1599 42.3242C55.0718 42.2359 54.9523 42.1863 54.8277 42.1861ZM41.707 54.3738C41.5828 54.3737 41.4636 54.3243 41.3758 54.2365C41.2879 54.1486 41.2385 54.0295 41.2384 53.9052L41.2365 50.1538C41.2366 50.0295 41.286 49.9104 41.3739 49.8225C41.4618 49.7347 41.5809 49.6852 41.7052 49.6852C41.9643 49.6852 42.1739 49.8956 42.1739 50.1538L42.1758 53.9052C42.1757 54.0295 42.1262 54.1486 42.0383 54.2365C41.9505 54.3243 41.8313 54.3737 41.707 54.3738Z" fill="black" fill-opacity="0.501961"/>
<path d="M42.6428 52.4973H40.768C40.5089 52.4973 40.2993 52.2867 40.2993 52.0287C40.2993 51.7686 40.5089 51.5599 40.768 51.5599H42.6428C42.7044 51.5598 42.7654 51.5719 42.8223 51.5954C42.8792 51.6189 42.9309 51.6534 42.9744 51.697C43.018 51.7405 43.0525 51.7923 43.076 51.8492C43.0995 51.9061 43.1115 51.9671 43.1114 52.0287C43.1113 52.1529 43.0619 52.2721 42.974 52.3599C42.8862 52.4478 42.767 52.4972 42.6428 52.4973ZM22.9577 58.1216C22.6986 58.1216 22.489 57.911 22.489 57.6529V53.9034C22.489 53.6434 22.6986 53.4347 22.9577 53.4347C23.2168 53.4347 23.4264 53.6434 23.4264 53.9034V57.6529C23.4264 57.911 23.2168 58.1216 22.9577 58.1216Z" fill="black" fill-opacity="0.501961"/>
<path d="M23.8942 56.2468H22.0204C21.7613 56.2468 21.5516 56.0362 21.5516 55.7781C21.5515 55.7165 21.5635 55.6555 21.5871 55.5986C21.6106 55.5417 21.6451 55.49 21.6887 55.4464C21.7322 55.4029 21.7839 55.3684 21.8408 55.3449C21.8978 55.3214 21.9588 55.3093 22.0204 55.3095H23.8942C23.9558 55.3093 24.0168 55.3214 24.0737 55.3449C24.1306 55.3684 24.1823 55.4029 24.2258 55.4464C24.2694 55.49 24.3039 55.5417 24.3274 55.5986C24.3509 55.6555 24.3629 55.7165 24.3628 55.7781C24.3628 56.0362 24.1533 56.2468 23.8942 56.2468ZM11.5664 11.6128C11.3073 11.6128 11.0977 11.4032 11.0977 11.1441L11.0986 7.39453C11.0986 7.33297 11.1107 7.27201 11.1342 7.21513C11.1578 7.15825 11.1923 7.10657 11.2358 7.06305C11.2794 7.01952 11.331 6.98501 11.3879 6.96148C11.4448 6.93794 11.5058 6.92585 11.5673 6.9259C11.6289 6.92587 11.6898 6.93797 11.7467 6.96151C11.8036 6.98505 11.8553 7.01957 11.8988 7.06309C11.9423 7.10661 11.9768 7.15829 12.0004 7.21516C12.0239 7.27203 12.036 7.33298 12.036 7.39453L12.035 11.1441C12.035 11.4033 11.8254 11.6128 11.5664 11.6128Z" fill="black" fill-opacity="0.501961"/>
<path d="M12.5038 9.73816H10.629C10.3699 9.73816 10.1603 9.52852 10.1603 9.26941C10.1602 9.20785 10.1723 9.14689 10.1959 9.09001C10.2194 9.03313 10.254 8.98146 10.2975 8.93793C10.341 8.89441 10.3927 8.85989 10.4496 8.83636C10.5065 8.81282 10.5675 8.80074 10.629 8.80078H12.5038C12.5653 8.80075 12.6263 8.81285 12.6832 8.83639C12.74 8.85993 12.7917 8.89445 12.8352 8.93797C12.8788 8.9815 12.9133 9.03317 12.9368 9.09004C12.9604 9.14691 12.9725 9.20786 12.9724 9.26941C12.9724 9.52852 12.7628 9.73816 12.5038 9.73816ZM30.4567 8.43996C30.3951 8.43999 30.3342 8.42789 30.2773 8.40435C30.2204 8.38081 30.1688 8.34629 30.1252 8.30277C30.0817 8.25925 30.0472 8.20758 30.0237 8.1507C30.0001 8.09383 29.988 8.03288 29.988 7.97133L29.989 4.2218C29.989 3.9627 30.1986 3.75305 30.4576 3.75305C30.7167 3.75305 30.9264 3.9627 30.9264 4.2218L30.9254 7.97133C30.9255 8.03289 30.9134 8.09385 30.8898 8.15073C30.8663 8.20761 30.8317 8.25929 30.7882 8.30281C30.7447 8.34634 30.693 8.38085 30.6361 8.40439C30.5792 8.42792 30.5182 8.44001 30.4567 8.43996Z" fill="black" fill-opacity="0.501961"/>
<path d="M31.3941 6.56519H29.5202C29.4587 6.56523 29.3977 6.55312 29.3409 6.52958C29.284 6.50604 29.2323 6.47153 29.1888 6.428C29.1453 6.38448 29.1108 6.33281 29.0872 6.27594C29.0637 6.21906 29.0516 6.15811 29.0516 6.09656C29.0516 5.83746 29.2613 5.62781 29.5202 5.62781H31.3941C31.6532 5.62781 31.8628 5.83746 31.8628 6.09656C31.8628 6.15812 31.8507 6.21908 31.8272 6.27596C31.8036 6.33284 31.7691 6.38452 31.7256 6.42805C31.682 6.47157 31.6304 6.50609 31.5735 6.52962C31.5166 6.55315 31.4556 6.56524 31.3941 6.56519ZM5.14664 29.9998C5.08508 29.9998 5.02412 29.9877 4.96724 29.9641C4.91036 29.9406 4.85868 29.9061 4.81516 29.8625C4.77163 29.819 4.73712 29.7673 4.71358 29.7104C4.69005 29.6535 4.67796 29.5926 4.67801 29.531L4.67988 25.7815C4.67988 25.5225 4.88941 25.3127 5.14851 25.3127C5.40762 25.3127 5.61726 25.5224 5.61726 25.7815L5.61539 29.531C5.61539 29.7901 5.40574 29.9998 5.14664 29.9998Z" fill="black" fill-opacity="0.501961"/>
<path d="M6.0859 28.125H4.21113C3.95203 28.125 3.7425 27.9154 3.7425 27.6562C3.7425 27.3971 3.95203 27.1875 4.21113 27.1875H6.0859C6.345 27.1875 6.55453 27.3971 6.55453 27.6562C6.55453 27.9154 6.345 28.125 6.0859 28.125ZM21.083 19.6886C20.2078 19.6886 19.384 19.3471 18.7634 18.7274C18.1436 18.1076 17.8022 17.2837 17.8013 16.4078C17.8013 15.5317 18.1426 14.7079 18.7624 14.0891C20.0037 12.8487 22.1623 12.8477 23.4016 14.0882C24.0224 14.7079 24.3638 15.5317 24.3638 16.4078C24.3638 17.2839 24.0224 18.1077 23.4016 18.7274C22.7829 19.3472 21.9591 19.6886 21.083 19.6886ZM21.083 14.0644C20.4568 14.0644 19.8682 14.3087 19.4252 14.7518C19.2069 14.9686 19.0338 15.2267 18.9159 15.5109C18.7981 15.7952 18.7379 16.1 18.7388 16.4078C18.7383 16.7157 18.7989 17.0206 18.9168 17.3049C19.0348 17.5893 19.2079 17.8475 19.4262 18.0647C20.3123 18.9509 21.8548 18.9509 22.7391 18.0647C23.1821 17.6217 23.4265 17.0331 23.4265 16.4078C23.4265 15.7826 23.1821 15.1939 22.7391 14.7509C22.296 14.3078 21.7082 14.0644 21.083 14.0644Z" fill="black" fill-opacity="0.501961"/>
<path d="M18.6608 19.6062C18.4438 19.6062 18.2516 19.5411 18.1005 19.3902C18.0179 19.3075 17.9691 19.197 17.9637 19.0802C17.9584 18.9634 17.9968 18.8489 18.0716 18.759C18.1463 18.6691 18.252 18.6104 18.3678 18.5944C18.4836 18.5784 18.6012 18.6062 18.6975 18.6724C18.9977 18.6551 20.0632 18.0893 21.4136 16.74C22.7646 15.3888 23.3303 14.3224 23.3477 14.0212C23.2225 13.839 23.2398 13.5864 23.4027 13.4244C23.4906 13.3365 23.6098 13.2872 23.7341 13.2872C23.8584 13.2872 23.9776 13.3365 24.0655 13.4244C25.012 14.3709 22.5742 16.9048 22.0762 17.4028C21.6578 17.8212 19.8041 19.6062 18.6608 19.6062Z" fill="black" fill-opacity="0.501961"/>
<path d="M51.3473 18.4702C51.2858 18.4702 51.2248 18.4581 51.1679 18.4345C51.1111 18.411 51.0594 18.3764 51.0159 18.3328L44.3876 11.7043C44.3028 11.6158 44.2561 11.4976 44.2575 11.3751C44.2588 11.2526 44.308 11.1354 44.3947 11.0488C44.4813 10.9621 44.5985 10.9128 44.721 10.9115C44.8435 10.9101 44.9617 10.9568 45.0503 11.0415L51.6786 17.67C51.7222 17.7135 51.7567 17.7652 51.7802 17.822C51.8038 17.8789 51.8159 17.9398 51.8159 18.0013C51.8159 18.0629 51.8038 18.1238 51.7802 18.1807C51.7567 18.2375 51.7222 18.2892 51.6786 18.3327C51.6352 18.3764 51.5836 18.411 51.5267 18.4346C51.4699 18.4582 51.4089 18.4703 51.3473 18.4702Z" fill="black" fill-opacity="0.501961"/>
<path d="M23.908 44.4088C23.3101 44.4088 22.2804 43.9492 20.5256 42.1935C17.9304 39.5992 18.1656 38.5886 18.5373 38.2168C18.6189 38.1354 18.7277 38.0869 18.8428 38.0806C18.9579 38.0743 19.0713 38.1107 19.1613 38.1827C19.2513 38.2548 19.3115 38.3576 19.3305 38.4713C19.3494 38.585 19.3258 38.7017 19.2641 38.7991C19.2568 38.9108 19.2934 39.6359 21.1883 41.5308C23.0804 43.4237 23.7945 43.4494 23.9208 43.4568C24.0107 43.3998 24.1173 43.3751 24.2231 43.3868C24.3289 43.3984 24.4276 43.4457 24.503 43.5209C24.5908 43.6088 24.6402 43.728 24.6402 43.8523C24.6402 43.9766 24.5908 44.0958 24.503 44.1837C24.383 44.3026 24.1954 44.4088 23.908 44.4088Z" fill="black" fill-opacity="0.501961"/>
<path d="M36.1021 27.087C36.0405 27.087 35.9795 27.0749 35.9227 27.0513C35.8658 27.0278 35.8141 26.9932 35.7707 26.9496C35.5895 26.7684 35.28 26.7684 35.0988 26.9496C35.0553 26.9931 35.0037 27.0277 34.9468 27.0512C34.89 27.0748 34.829 27.0869 34.7675 27.0869C34.7059 27.0869 34.645 27.0748 34.5881 27.0512C34.5313 27.0277 34.4796 26.9931 34.4361 26.9496C34.2531 26.7675 34.2531 26.4709 34.4361 26.2869C34.9689 25.7523 35.9007 25.7523 36.4335 26.2869C36.6165 26.4709 36.6165 26.7675 36.4335 26.9496C36.39 26.9932 36.3383 27.0278 36.2815 27.0513C36.2246 27.0749 36.1636 27.087 36.1021 27.087Z" fill="black" fill-opacity="0.501961"/>
<path d="M42.7305 20.4585C42.669 20.4585 42.6081 20.4464 42.5512 20.4229C42.4944 20.3993 42.4427 20.3648 42.3993 20.3212C42.31 20.2324 42.1892 20.1825 42.0633 20.1825C41.9374 20.1825 41.8166 20.2324 41.7273 20.3212C41.6388 20.406 41.5206 20.4527 41.398 20.4513C41.2755 20.45 41.1584 20.4007 41.0717 20.314C40.9851 20.2274 40.9358 20.1102 40.9345 19.9877C40.9332 19.8651 40.9799 19.747 41.0646 19.6584C41.6156 19.1073 42.5111 19.1073 43.0621 19.6584C43.1276 19.724 43.1722 19.8075 43.1902 19.8984C43.2083 19.9893 43.199 20.0836 43.1635 20.1692C43.128 20.2548 43.0679 20.328 42.9909 20.3795C42.9138 20.431 42.8232 20.4585 42.7305 20.4585Z" fill="black" fill-opacity="0.501961"/>
</svg>
